<?xml version="1.0" standalone="no"?>
<!DOCTYPE svg PUBLIC "-//W3C//DTD SVG 1.1//EN" "http://www.w3.org/Graphics/SVG/1.1/DTD/svg11.dtd">
<svg width="100%" height="100%" viewBox="0 0 107 36" version="1.1" xmlns="http://www.w3.org/2000/svg" xmlns:xlink="http://www.w3.org/1999/xlink" xml:space="preserve" style="fill-rule:evenodd;clip-rule:evenodd;stroke-linejoin:round;stroke-miterlimit:1.41421;">
    <g transform="matrix(0.520025,0,0,0.527176,-2.63824,-7.59319)">
        <g transform="matrix(0.9488,0.3159,-0.3159,0.9488,122.484,-12.5246)">
            <rect x="44.579" y="62.597" width="10.598" height="1.001" style="fill:black;"/>
        </g>
        <g transform="matrix(1,0,0,1,100,0)">
            <path d="M51.294,80.208C50.871,80.208 50.443,80.139 50.023,79.999L29.783,73.262C28.717,72.907 27.851,72.157 27.347,71.152C26.844,70.146 26.762,69.005 27.118,67.937L29.755,60.017C30.109,58.956 30.851,58.134 31.847,57.703C32.799,57.289 33.917,57.259 34.993,57.616L39.595,59.148L39.279,60.097L34.677,58.565C33.835,58.284 32.973,58.303 32.245,58.62C31.504,58.942 30.971,59.535 30.705,60.334L28.068,68.254C27.508,69.933 28.421,71.754 30.1,72.314L50.34,79.051C51.13,79.316 51.959,79.243 52.668,78.852C53.373,78.461 53.914,77.786 54.192,76.951L57.268,67.708L58.217,68.024L55.141,77.267C54.784,78.34 54.078,79.213 53.153,79.727C52.575,80.046 51.94,80.208 51.294,80.208Z" style="fill:black;fill-rule:nonzero;"/>
        </g>
        <g transform="matrix(0.9488,0.3158,-0.3158,0.9488,122.994,-11.8143)">
            <rect x="43.054" y="64.532" width="9.783" height="1.001" style="fill:black;"/>
        </g>
        <g transform="matrix(1,0,0,1,100,0)">
            <path d="M51.356,77.772C51.131,77.772 50.933,77.724 50.795,77.678L30.555,70.941C29.57,70.612 29.111,69.694 29.438,68.709L32.075,60.789C32.289,60.146 32.832,59.475 34.22,59.935L37.275,60.953L36.959,61.902L33.904,60.884C33.183,60.642 33.107,60.856 33.025,61.105L30.388,69.025C30.233,69.492 30.405,69.836 30.872,69.992L51.112,76.729C51.343,76.807 51.631,76.901 51.871,76.176L53.918,70.027L54.867,70.343L52.82,76.492C52.474,77.534 51.853,77.772 51.356,77.772Z" style="fill:black;fill-rule:nonzero;"/>
        </g>
        <g transform="matrix(1,0,0,1,100,0)">
            <path d="M58.526,82.082C58.304,82.082 58.081,82.064 57.857,82.029C56.747,81.852 55.771,81.255 55.111,80.344L54.512,79.72L55.237,79.031L55.878,79.706C56.424,80.451 57.167,80.907 58.014,81.041C58.861,81.175 59.708,80.973 60.404,80.469L77.666,67.935C78.36,67.431 78.816,66.687 78.95,65.84C79.085,64.993 78.882,64.145 78.378,63.451L73.474,56.696C72.97,56.002 72.226,55.546 71.379,55.412C70.53,55.275 69.684,55.48 68.989,55.984L51.727,68.519C51.033,69.023 50.577,69.767 50.443,70.614C50.308,71.462 50.511,72.31 51.015,73.004L52.64,75.275L51.828,75.857L50.205,73.589C49.546,72.682 49.279,71.568 49.455,70.458C49.632,69.347 50.229,68.371 51.14,67.711L68.4,55.176C69.311,54.514 70.423,54.248 71.534,54.424C72.645,54.601 73.621,55.198 74.281,56.109L79.185,62.864C79.846,63.774 80.113,64.887 79.937,65.998C79.76,67.108 79.163,68.084 78.252,68.744L60.991,81.277C60.264,81.806 59.407,82.082 58.526,82.082Z" style="fill:black;fill-rule:nonzero;"/>
        </g>
        <g transform="matrix(1,0,0,1,100,0)">
            <path d="M58.522,79.763C58.422,79.763 58.321,79.755 58.22,79.739C57.721,79.66 57.283,79.391 56.987,78.983L55.753,77.283L56.562,76.695L57.796,78.395C57.936,78.587 58.143,78.714 58.378,78.751C58.611,78.79 58.849,78.732 59.041,78.593L76.303,66.059C76.7,65.77 76.789,65.211 76.5,64.813L71.596,58.059C71.456,57.867 71.25,57.741 71.014,57.704C70.783,57.666 70.543,57.723 70.352,57.861L53.089,70.396C52.897,70.536 52.771,70.742 52.734,70.978C52.697,71.213 52.753,71.449 52.892,71.641L53.536,72.659L52.69,73.192L52.065,72.202C51.787,71.821 51.667,71.321 51.746,70.821C51.826,70.322 52.094,69.883 52.502,69.588L69.765,57.053C70.61,56.441 71.793,56.629 72.406,57.472L77.311,64.227C77.923,65.072 77.735,66.256 76.892,66.869L59.629,79.401C59.303,79.639 58.918,79.763 58.522,79.763Z" style="fill:black;fill-rule:nonzero;"/>
        </g>
        <g transform="matrix(1,0,0,1,100,0)">
            <path d="M32.957,67.843C32.813,67.843 32.669,67.835 32.523,67.82L32.628,66.826C33.19,66.885 33.733,66.793 34.202,66.555L41.646,62.78C43.261,61.962 43.424,59.803 42.649,58.272L33.244,39.722L34.137,39.269L43.542,57.82C44.534,59.78 44.265,62.575 42.099,63.673L34.655,67.448C34.138,67.708 33.558,67.843 32.957,67.843Z" style="fill:black;fill-rule:nonzero;"/>
        </g>
        <g transform="matrix(1,0,0,1,100,0)">
            <path d="M27.022,61.703L19.187,46.249C18.677,45.242 18.644,44.201 19.093,43.237C19.497,42.367 20.26,41.63 21.298,41.102L29.987,36.697L30.44,37.59L21.751,41.995C20.43,42.665 19.199,44.062 20.079,45.796L27.914,61.25L27.022,61.703Z" style="fill:black;fill-rule:nonzero;"/>
        </g>
        <g transform="matrix(1,0,0,1,100,0)">
            <path d="M33.549,65.265L33.096,64.372L40.541,60.598C40.944,60.394 40.588,59.613 40.469,59.378L31.801,42.281L32.694,41.828L41.362,58.925C41.963,60.11 41.825,61.069 40.995,61.49L33.549,65.265Z" style="fill:black;fill-rule:nonzero;"/>
        </g>
        <g transform="matrix(1,0,0,1,100,0)">
            <path d="M28.737,59.676L21.369,45.144C21.195,44.799 21.155,44.498 21.247,44.223C21.392,43.787 21.802,43.584 22.236,43.369L28.185,40.353L28.638,41.246L22.679,44.266C22.5,44.354 22.257,44.474 22.196,44.544C22.204,44.55 22.216,44.601 22.261,44.691L29.629,59.222L28.737,59.676Z" style="fill:black;fill-rule:nonzero;"/>
        </g>
        <g transform="matrix(1,0,0,1,100,0)">
            <path d="M27.441,45.603C26.772,45.603 26.11,45.442 25.5,45.124L23.021,43.855L23.476,42.964L25.958,44.235C26.722,44.634 27.589,44.713 28.409,44.452C29.226,44.195 29.894,43.634 30.291,42.874L40.145,23.952C40.541,23.192 40.617,22.323 40.359,21.506C40.101,20.688 39.541,20.02 38.781,19.623L31.377,15.767C30.617,15.371 29.749,15.294 28.93,15.553C28.113,15.81 27.445,16.371 27.048,17.131L17.194,36.052C16.377,37.622 16.988,39.565 18.557,40.382L19.376,40.95L18.802,41.768L18.039,41.234C17.098,40.749 16.362,39.872 16.024,38.799C15.687,37.726 15.787,36.586 16.306,35.589L26.16,16.668C27.231,14.609 29.778,13.807 31.838,14.879L39.242,18.735C40.239,19.255 40.974,20.131 41.312,21.204C41.65,22.276 41.55,23.417 41.031,24.414L31.177,43.335C30.657,44.332 29.781,45.067 28.708,45.405C28.293,45.537 27.866,45.603 27.441,45.603Z" style="fill:black;fill-rule:nonzero;"/>
        </g>
        <g transform="matrix(1,0,0,1,100,0)">
            <path d="M27.441,43.282C27.141,43.282 26.844,43.21 26.571,43.067L25.528,42.608L25.932,41.694L27.003,42.167C27.468,42.405 28.008,42.238 28.234,41.802L38.088,22.882C38.315,22.446 38.145,21.907 37.709,21.68L30.305,17.824C30.096,17.716 29.855,17.694 29.626,17.765C29.398,17.836 29.213,17.992 29.104,18.203L19.25,37.124C19.141,37.334 19.119,37.576 19.19,37.804C19.262,38.031 19.418,38.217 19.628,38.326L21.492,39.297L21.029,40.184L19.166,39.213C18.242,38.732 17.881,37.587 18.363,36.661L28.217,17.741C28.449,17.295 28.843,16.964 29.324,16.811C29.807,16.661 30.32,16.703 30.766,16.937L38.171,20.793C39.095,21.275 39.455,22.42 38.974,23.344L29.12,42.265C28.887,42.712 28.493,43.042 28.011,43.194C27.825,43.253 27.633,43.282 27.441,43.282Z" style="fill:black;fill-rule:nonzero;"/>
        </g>
    </g>
    <g transform="matrix(1.01751,0,0,1.01751,-20.4845,-63.2376)">
        <text x="20.132px" y="87.531px" style="font-family:'Seravek';font-size:20px;fill:black;">LogMe</text>
    </g>
    <g transform="matrix(1,0,0,1,27.7672,-77.4035)">
        <text x="43.934px" y="93.52px" style="font-family:'Seravek';font-size:20px;fill:black;">Link</text>
    </g>
</svg>
